<svg xmlns="http://www.w3.org/2000/svg" xml:space="preserve" viewBox="89 200 1604 210">
  <path fill="#fffefe" d="m1669 373 17-79q3-11 2-20c0-13-10-26-28-26h-635a38 38 0 0 0-38 30l-4 19q-9 38-16 77a26 26 0 0 0 27 31l7-1h627q8 1 14-1 22-7 27-30M643 400h7c7 0 7 0 8-7l34-181q3-6-4-6h-28a14 14 0 0 0-14 7l-35 54-19 29-1-5-21-80q-1-5-7-5h-27c-8 0-8 1-10 8l-9 53-23 128q-2 6 4 5h31q6 0 6-5l5-26 12-69 1 3 14 52 5 6c9 5 22 2 27-7l32-52 2-4v5l-17 90q-3 8 6 7zm354-170q4-10 7-24h-59q-9-1-10 8l-16 76-3 13-7-25-15-65q-1-9-9-7h-18c-10 0-10 1-12 10l-22 110-13 68q-2 7 4 6h30q7 0 8-6l10-53 8-40 5 18 19 74q2 7 9 7h16q7 0 8-6l29-141q2-10 11-14zm-276-13a51 51 0 0 0-15 29l-14 73-8 44q-3 28 22 36 33 7 65 0 28-5 34-35l17-85 6-42q2-25-24-30-27-5-53-1a51 51 0 0 0-30 11M207 400c8 0 8 0 9-7l23-121 11-61q2-5-4-5h-30q-6 0-7 6l-1 4-12 62q0 4-5 4h-34l1-6 13-64q1-7-5-6h-26c-9 0-10 0-11 9l-14 74-21 104q-3 8 6 7h27q9 1 9-8l12-63q0-4 5-4h33v2l-11 65q-4 9 6 8zm156-12-6-177q1-6-5-5h-37c-12 0-13 1-17 12l-20 53-49 124q-2 5 4 5h29q9 0 12-8l9-23q2-5 6-5h28q6 0 5 5v24q-1 8 7 7h24c10 0 10 0 10-12m39-30-7 36q-2 6 5 6h29q7 0 8-6l5-30q2-19 9-34l21-38 41-80q5-7-4-6h-28q-9 0-13 8l-31 61-4 8-2-15-10-57q0-5-6-5h-30q-8 0-6 7l20 97c3 16 8 31 3 48"/>
  <path fill="#030303" d="M1668 373a36 36 0 0 1-26 30q-6 2-14 1h-455l-179 1a26 26 0 0 1-27-31l15-77 4-19q10-29 39-30h635c18 0 28 13 28 26q1 9-3 20zm-125-75-2 1-4 7-1 40 7 11c4 8 26 8 32 1l1-1 1-1q7-7 4-16-6-3-13 1l-1 1q-1 8-9 7-7-3-6-10v-24q-1-7 4-9 7-2 11 5l2 2v1q6 3 11-1l2-2v-2q0-11-13-17c-8-3-21-1-25 4v1zm-15 62 1-3v-58l-1-5h-2l-13-1-4 8-3 12h-2l-4-14-3-5v-1l-9-1q-9-1-8 8v52q-1 13 11 10l4-4v-10l1-14 10 2 8-4v18l3 11zm-310-64v59l1 5v1l4 2 26-1c11-2 18-13 15-23l-6-15 1-2c8-9 4-24-7-28q-14-4-30-3l-3 3zm-104-2q-2 5 1 9v2l9 1q6-1 5 5v40c0 11 1 11 10 11q7 1 6-5v-42c0-9 0-9 9-9l6-2h1q3-6-1-10v-1l-3-1h-39l-3 2zm-85-1h-14v67h25q17-2 17-19v-28q0-17-19-19zm287 56-13-48c-3-11-1-8-11-9q-7-1-8 6l-13 51-2 10c11 2 11 2 14-8 2-9 0-7 9-7 12 0 10-2 12 7s2 9 12 9l2-1zm-207-11-10-37c-3-10-1-8-12-9q-6-1-7 6l-15 56-1 5c12 2 12 2 15-9l1-4q0-2 3-2c12-2 15-1 18 11v2l3 3h10zm283-29q-2-7 6-6h22v-10h-40v66h40v-10h-14c-14 0-14 0-14-14q0-5 5-5h19c2-11 2-11-8-11h-16zm-230 50c11 2 12 2 14-8l1-5 3-2c14-2 15-2 18 11l1 2 2 2h10v-2l-16-62-4-3c-12-1-12-1-15 11zm175-14q-1-7-12-3 0 13 11 16l16 2q18-3 17-22a19 19 0 0 0-12-16l-13-4q-5-2-6-9 1-6 6-7 8-2 11 4l3 4h9q0-17-19-19-18 1-22 15-3 16 14 23l12 4 4 8q0 5-4 8-8 4-15-4m299-44-8-7c-11-6-22-4-33-4q-6 1-5 6v57q0 11 12 8 4 0 4-5v-13c0-6 0-7 8-7h4q7-2 13-6c9-7 8-18 5-29"/>
  <path fill="#030303" d="M642 400h-20q-9 1-6-7l17-90v-5l-2 4-32 52c-5 9-18 12-27 7l-5-6-14-52-1-3-12 69-5 26q0 5-6 5h-31q-6 1-4-5l23-128 9-53c2-7 2-8 10-8h26q7-1 7 5l22 80 1 5 19-29 35-54q4-7 14-7h28q7 0 4 6l-11 59-23 122c-1 7-1 7-9 7zm354-170-19 9a19 19 0 0 0-11 14l-29 141q-1 6-8 6h-16q-8 0-9-7l-19-74-5-18-8 40-10 53q-1 6-8 6h-30q-6 1-4-6l13-68 22-110c2-9 2-10 12-10h18q8-2 9 7l15 65 7 25 3-13 16-76q0-9 10-8h59c-3 9-3 17-8 24m-275-14a51 51 0 0 1 30-10q26-4 53 1 25 5 24 30l-6 42-17 85q-6 30-34 35-32 7-65 0c-15-4-25-18-22-36l8-44 14-73q2-17 15-30m63 42 1-5q2-8-6-7h-23q-9-1-10 8l-11 58-8 40q-3 9 7 8h24q7 1 8-6l2-12zM207 400h-26q-10 1-7-8l12-65v-2h-33q-5 0-5 4l-12 63q0 9-9 8h-27q-9 1-6-7l21-104 14-74c1-9 2-9 11-9h26q6-1 5 6l-13 64-1 6h34q5 0 5-4l12-62 1-4q1-6 7-6h30q6-1 4 5l-11 61-23 121c-1 7-1 7-9 7m156-11c0 11 0 11-10 11h-24q-8 1-7-7v-24q1-5-5-5h-28q-4 0-6 5l-9 23q-3 9-12 8h-29q-6 1-4-5l49-124 20-53c4-11 5-12 17-12h37q6-1 5 5zm-57-86-7 17h21v-55h-1zm96 55c5-17 0-32-3-48l-20-97q-1-7 6-7h30q6 0 6 5l10 57 2 15 4-8 31-61q4-8 13-8h28q9-1 4 6l-41 80-21 38q-7 15-9 34l-5 30q-1 6-8 6h-29q-7 0-5-6z"/>
  <path fill="#EDE3F7" d="M1219 294h26q17 3 15 21-2 5-8 11l2 1q9 8 7 18-2 14-12 14l-31 1v-65zm12 22q0 5 5 5c4 0 10 1 13-5q2-5-1-10-7-5-15-2l-2 7zm0 15v11c0 10 0 10 10 9q10-1 10-10 0-10-9-11z"/>
  <path fill="#E9DEF5" d="m1514 293 13 1 1 9-1 2v49l1 3v1l-1 1-2 1h-7l-1-6-1-15v-26l-5 17q-1 4-6 5-4 1-6-5l-6-20v45c0 6-3 5-7 6q-5-1-4-6v-50c0-13 1-14 15-11v1l8 29z"/>
  <path fill="#EEE5F8" d="m1030 293 8 1q19 2 19 19v28q0 17-17 19h-24v-67zm13 54 1-1 2-6v-26l-3-7-1-1-10-2q-5-1-5 5v37l1 5 13-3z"/>
  <path fill="#E6D9F3" d="m1316 350 2 10-2 1c-10 1-10 0-12-9-3-9 0-7-12-7-9 0-7-2-9 7-3 10-3 10-14 8l2-10 13-51q1-6 8-6c10 1 8-1 11 9zm-22-16h6l-6-22h-2l-6 23z"/>
  <path fill="#E9DEF5" d="m1109 339 5 22h-10l-3-3v-2c-3-12-6-13-18-11l-3 2-1 4c-3 11-3 11-15 9l1-5 15-56q1-7 7-6c11 1 9-1 12 9zm-25-11-1 6h13l-6-24h-2z"/>
  <path fill="#E3D5F1" d="M1392 310v10h16c10 0 10 0 8 11h-19q-5-1-5 5c0 14 0 14 14 14h14v10h-40v-66h40v10h-22q-7-1-6 6"/>
  <path fill="#E9DEF5" d="m1162 360 14-56c3-12 3-12 15-11l4 3 16 62v2l-10 1-2-3-1-2c-3-13-4-13-18-11l-3 2-1 5c-2 10-3 10-14 8m23-49-5 23h13l-6-26h-1z"/>
  <path fill="#EDE3F7" d="M1338 346q6 8 14 4 4-3 4-8 0-4-4-7l-12-5q-17-7-14-23 4-14 22-15 19 2 20 19h-10l-3-4q-3-6-11-4-5 1-6 7 0 7 6 9l13 4q11 5 12 17 1 18-17 21-8 1-16-1-11-4-11-17 10-4 13 3"/>
  <path fill="#E7DBF4" d="M1115 304v-10h45v10h-17v50q1 7-5 7-7 1-6-6v-44l-1-7z"/>
  <path fill="#50287B" d="M1497 294c-14-3-15-2-15 12v50q-1 4 4 5c4-1 7 0 7-6v-45l6 20q2 5 6 5 5 0 6-5l5-17v48l-2-11v-18l-8 4-10-1-1 13v10q-1 3-4 4-12 3-11-10v-52q-1-9 8-8 5 0 9 2"/>
  <path fill="#5E318E" d="M1636 303c3 11 4 21-5 29l-13 5h-4c-8 0-8 1-8 8v12q0 5-4 6-12 3-12-9v-57q-1-5 5-5 17-3 33 3zm-44 13v40l1 4h9l2-6v-19h14q17-2 18-21-1-19-19-20h-21q-4 0-4 4z"/>
  <path fill="#552B82" d="M1115 304h16l1 7v44q-1 7 6 6 6 0 5-6v-51h16l-5 2c-9 0-9 0-9 9v42q1 5-6 5c-9 0-10 0-10-11v-40q1-5-5-5-5 0-9-2"/>
  <path fill="#5E318E" d="m1219 360 31-1q11-2 12-14 3-10-7-18l-2-1h1l7-11q2-18-15-21h-26l2-3q16-1 30 3a19 19 0 0 1 7 28l-1 2 7 15c2 10-5 22-15 23l-27 1z"/>
  <path fill="#5B2F8A" d="m1569 313-2-2q-4-7-11-5-5 2-4 9v24q-1 8 6 10 8 1 9-7l1-1h1l-1 6-1 1-1 1-1 1-7 1h-2l-2-1-1-1-1-1-1-1v-1l-1-31q0-12 11-12h2l2 1 1 1 1 1zm-26 43-7-10 1-40 5-7v2l-3 5v2l-1 30a28 28 0 0 0 5 18"/>
  <path fill="#50287B" d="m1513 293-8 31-8-29 3 4 4 14h2l3-11z"/>
  <path fill="#5B2F8A" d="M1544 297v-1c4-5 17-7 25-4q13 5 13 18l-1 1-3-8q-7-12-20-10h-2z"/>
  <path fill="#552B82" d="M1160 294h-45l3-2h39q2 0 3 2"/>
  <path fill="#5B2F8A" d="M1575 357v2c-6 6-28 6-32-2v-1h2l1 1 9 4h10l8-4z"/>
  <path fill="#482271" d="M1219 295v65l-1-5zm309 63v-1l-1-3 1-7v-53l1 5z"/>
  <path fill="#D4BBEE" d="m1578 303 3 9-1 1h-11l-2-7 2 2q2 5 7 3l2-5z"/>
  <path fill="#5B2F8A" d="M1581 341q3 7-5 15v-1l2-4zm-12 0q6-4 12-1v1zm0-28h11q-5 4-11 0"/>
  <path fill="#B98FDE" d="m1517 361-1-21 1 14z"/>
  <path fill="#552B82" d="M1160 304v-9q4 3 0 9m-45-10v9q-4-4 0-9"/>
  <path fill="#50287B" d="M1517 361h9z"/>
  <path fill="#B98FDE" d="M1528 294v8l-1-8zm-1 65 1 1-1 1h-1z"/>
  <path fill="#fcfcfc" d="m784 259-16 83-2 12q-1 7-8 6h-24q-9 1-7-8l8-40 11-58q1-9 10-8h23q8-1 6 7z"/>
  <path fill="#f7f7f7" d="m306 303 13-38h1v55h-21z"/>
  <path fill="#6B39A3" d="M1231 316v-5l2-7q8-3 15 2 3 5 1 10c-3 5-9 4-13 5q-6 1-5-5"/>
  <path fill="#552B82" d="m1232 331 9-1q10 1 10 11 0 9-10 10c-10 1-10 1-10-9zm10 18q9-3 7-11-2-7-12-6c-6 1-3 6-4 9 0 8 0 8 9 8m-201 0-13 2-1-5v-37q0-6 5-5l10 3h-1l-10-1-2 4v35q0 2 2 3h9zm2-41 3 6v26l-3 6v-2l1-27-1-5z"/>
  <path fill="#552B82" d="m1042 347-1 1h-1v-1zm0-40 1 1zm1 39v1h-1z"/>
  <path fill="#5E318E" d="M1294 334h-8l6-22h2l6 22zm-210-7 4-17h2l6 24h-13z"/>
  <path fill="#4E2678" d="m1185 311 1-3h1l6 26h-13zm1 22 4-3-3-13h-2l-2 12z"/>
  <path fill="#EEE5F8" d="M1592 315v-17q0-4 4-4h22q17 1 18 20-1 19-18 21h-14v19l-2 6h-9l-1-5zm32 3q3-17-20-14v21h10q8 0 9-7"/>
  <path fill="#fffef8" d="m1571 341 7 1v9l-5 6-8 4h-10l-9-4-1-1q-6-11-5-21v-22l-1-5v-2l3-5 10-6 4-2h2q11 2 18 9l2 1v3l-2 5q-5 2-7-3l-2-2-1-1-1-1-2-1h-2q-12-4-13 10v29l3 4v1l1 1 1 1 1 1 2 1h2l7-1 1-1 1-1 1-1z"/>
  <path fill="#D4BBEE" d="m1551 346-3-4v-29q1-14 13-11-11 1-11 13zm20-5-3 6 1-6zm-6 9-7 2zm-2-47 2 1zm-7 48-2-1zm-2-1-1-1zm13-2-1 1zm1-1-1 1zm-3-43 1 1zm-26 4 1 5v22a38 38 0 0 0 5 21h-1q-7-9-6-18zm17-15-4 2-10 6v-1l1-2 1-1zm-14 8-2 5zm36 2-2-1q-7-7-18-9a18 18 0 0 1 20 10m-32 54 9 3zm19 4 8-4zm8-4 5-6-2 4-1 1zm5-6v-9l2-1z"/>
  <path fill="#030303" d="M1242 349c-9 0-9 0-9-8 1-3-3-8 4-9q10-1 12 6 2 9-7 11"/>
  <path fill="#030303" d="m1043 346-1 1h-2l-2 1h-7l-1-25 1-17 10 1 2 1v4l-1 24 1 8z"/>
  <path fill="#6B39A3" d="m1031 306-1 17v24l-1-2v-35zm7 42 2-1v1zm5-4-1-8 1-24 1 5z"/>
  <path fill="#030303" d="m1185 333-2-4 2-12h2l3 13z"/>
  <path fill="#6B39A3" d="M1623 318q-2 7-9 7h-10v-21q23-4 19 14"/>
</svg>
